<svg id="Capa_1" enable-background="new 0 0 512 512" height="512" viewBox="0 0 512 512" width="512" xmlns="http://www.w3.org/2000/svg"><path d="m95.357 223.043h258.57l-43.974-97.919h-192.609z" fill="#ddf4dc"/><path d="m428.993 220.761h-59.003l-49.484-111.603h-216.085l-24.742 111.603h-79.679v80.121l56.674 39.086h455.326v-36.2c0-45.843-37.164-83.007-83.007-83.007zm-189.293-79.671h59.7l36.202 79.671h-95.902zm-109.431 0h79.431v79.671h-97.533z" fill="#00969b"/><circle cx="103.581" cy="339.968" fill="#c8d2dc" r="46.908"/><path d="m103.581 402.842c-34.669 0-62.874-28.205-62.874-62.873s28.205-62.873 62.874-62.873 62.873 28.205 62.873 62.873-28.204 62.873-62.873 62.873zm0-93.815c-17.061 0-30.942 13.88-30.942 30.942 0 17.061 13.881 30.942 30.942 30.942s30.942-13.88 30.942-30.942-13.88-30.942-30.942-30.942z" fill="#07485e"/><path d="m256 223.043h97.927l-43.974-97.919h-53.953z" fill="#b4deb2"/><path d="m428.993 220.761h-58.684l-49.802-111.603h-64.507v31.932h43.4l36.202 79.671h-79.602v119.207h256v-36.2c0-45.843-37.164-83.007-83.007-83.007z" fill="#007769"/><path d="m452 262.777h49.162c-7.005-12.306-17.045-22.658-29.129-30h-20.033z" fill="#fffce5"/><circle cx="400.835" cy="339.968" fill="#a2abb8" r="46.908"/><path d="m400.835 402.842c-34.669 0-62.873-28.205-62.873-62.873s28.205-62.873 62.873-62.873 62.873 28.205 62.873 62.873-28.204 62.873-62.873 62.873zm0-93.815c-17.061 0-30.942 13.88-30.942 30.942 0 17.061 13.88 30.942 30.942 30.942 17.061 0 30.942-13.88 30.942-30.942s-13.881-30.942-30.942-30.942z" fill="#04303e"/></svg>