<svg id="Layer_1" enable-background="new 0 0 496 496" height="512" viewBox="0 0 496 496" width="512" xmlns="http://www.w3.org/2000/svg"><path d="m369.69 144c-11.07 0-189.647 0-199.74 0-6.09 0-11.66 3.46-14.35 8.92l-19.74 40c-5.25 10.63 2.49 23.08 14.35 23.08h263.79z" fill="#ade4f9"/><path d="m496 256v-16c0-13.255-10.745-24-24-24h-162v-72h59.69l-15-24.39c-2.92-4.73-8.07-7.61-13.63-7.61h-204.12c-5.56 0-10.71 2.88-13.63 7.61l-59.31 96.39h-48c-8.837 0-16 7.163-16 16v80c0 8.837 7.163 16 16 16h64c0-30.831 24.964-56 56-56 31.029 0 56 25.162 56 56h112c0-30.831 24.964-56 56-56 31.029 0 56 25.162 56 56h56c13.255 0 24-10.745 24-24v-16h-23.631c-8.801 0-16.368-7.198-16.369-15.999-.002-20.213 24.799-16.001 40-16.001zm-288-40h-57.79c-11.86 0-19.6-12.45-14.35-23.08l19.74-40c2.69-5.46 8.26-8.92 14.35-8.92h38.05zm86 0h-70v-72h70z" fill="#f88099"/><path d="m136 272c30.93 0 56 25.07 56 56s-25.07 56-56 56-56-25.07-56-56 25.07-56 56-56zm8 56c0-4.42-3.58-8-8-8s-8 3.58-8 8 3.58 8 8 8 8-3.58 8-8z" fill="#414754"/><path d="m360 272c30.93 0 56 25.07 56 56s-25.07 56-56 56-56-25.07-56-56 25.07-56 56-56zm8 56c0-4.42-3.58-8-8-8s-8 3.58-8 8 3.58 8 8 8 8-3.58 8-8z" fill="#414754"/><g fill="#d6f7ff"><path d="m290.65 144-30.49 72h-30l30.49-72z"/><path d="m385.07 168.98-19.91 47.02h-50l30.49-72h24.04z"/><path d="m205.65 144-30.49 72c-26.709 0-26.644.24-29.7-.71l30.19-71.29z"/></g><path d="m369.69 144h-199.74c-6.09 0-11.66 3.46-14.35 8.92l-17.3 35.06c-14.25-9.79-25.75-22.97-33.51-38.26 7.011-11.409 2.621-4.314 18.52-30.11 2.917-4.732 8.07-7.61 13.63-7.61h204.12c5.56 0 10.71 2.88 13.63 7.61z" fill="#fbb3c2"/><path d="m93.31 291.76c-8.31 9.77-13.31 22.44-13.31 36.24h-64c-8.837 0-16-7.163-16-16v-80.18c23.4 30.39 56.49 51.42 93.31 59.94z" fill="#e05a7f"/><path d="m181.96 296h132.08c-6.33 9.08-10.04 20.12-10.04 32h-112c0-11.88-3.71-22.92-10.04-32z" fill="#e05a7f"/><path d="m496 296v8c0 13.25-10.75 24-24 24h-56c0-11.88-3.71-22.92-10.04-32z" fill="#e05a7f"/><path d="m0 248h32c4.418 0 8 3.582 8 8s-3.582 8-8 8h-32z" fill="#fac560"/><path d="m0 280h24c4.418 0 8 3.582 8 8s-3.582 8-8 8h-24z" fill="#fff"/><path d="m496 256v32h-24c-14.303 0-21.295-17.311-11.32-27.32 2.9-2.89 6.9-4.68 11.32-4.68z" fill="#fee8b4"/><path d="m272 264h-16c-4.418 0-8-3.582-8-8s3.582-8 8-8h16c4.418 0 8 3.582 8 8s-3.582 8-8 8z" fill="#fff"/><path d="m136 344c-8.822 0-16-7.177-16-16s7.178-16 16-16 16 7.177 16 16-7.178 16-16 16zm0-16.011v.011z" fill="#292d31"/><path d="m360 344c-8.822 0-16-7.177-16-16s7.178-16 16-16 16 7.177 16 16-7.178 16-16 16zm0-16.011v.011z" fill="#292d31"/></svg>