<svg id="filled_outline" height="512" viewBox="0 0 512 512" width="512" xmlns="http://www.w3.org/2000/svg" data-name="filled outline"><circle cx="439.986" cy="368" fill="#efe8e0" r="40"/><path d="m439.98557 296 44.4376 29.62507a8 8 0 0 1 3.5624 6.6564v11.71853h-80v-48z" fill="#c47010"/><path d="m455.98557 227.31006v50.16994a7.96316 7.96316 0 0 1 -1.45 4.59009l-52.16 74.5199a7.99658 7.99658 0 0 1 -6.55994 3.41h-59.83006v-215.99999h56l23.49 39.15991a8.13266 8.13266 0 0 0 1.21 1.54l36.96 36.96a8.12988 8.12988 0 0 1 2.34008 5.65015z" fill="#eeac13"/><path d="m231.986 288h48v40h-48z" fill="#eeac13"/><path d="m231.98557 256h48a0 0 0 0 1 0 0v32a0 0 0 0 1 0 0h-40a8 8 0 0 1 -8-8v-24a0 0 0 0 1 0 0z" fill="#c47010" transform="matrix(-1 0 0 -1 511.971 544)"/><path d="m175.986 328h160v32h-160z" fill="#c47010"/><path d="m23.98557 240v112a8 8 0 0 0 8 8h144v-91.47048a8 8 0 0 0 -3.884-6.85994l-36.116-21.66958z" fill="#eeac13"/><path d="m391.98542 143.99974-21.66942-36.11574a8 8 0 0 0 -6.85995-3.884h-304.80381a8 8 0 0 0 -4.8 1.6l-26.66667 20a8 8 0 0 0 -3.2 6.4v12h368z" fill="#eeac13"/><path d="m455.25559 224h-119.27v-80h56l23.49 39.15991a8.13266 8.13266 0 0 0 1.21 1.54l36.96 36.96a7.76531 7.76531 0 0 1 1.61 2.34009z" fill="#b6f7f5"/><circle cx="87.986" cy="368" fill="#efe8e0" r="40"/><path d="m488.875 318.96875-34.35547-22.90381 6.58594-9.40869a15.90879 15.90879 0 0 0 2.89453-9.17969v-50.16406a15.89068 15.89068 0 0 0 -4.6875-11.3125l-36.96094-36.96094-45.16406-75.27734a16.08569 16.08569 0 0 0 -13.71875-7.76172h-304.80075a16.06356 16.06356 0 0 0 -9.60156 3.20312l-26.66407 19.9961a16.0734 16.0734 0 0 0 -6.40237 12.80078v12a8.00039 8.00039 0 0 0 8 8h8v80h-8a8.00039 8.00039 0 0 0 -8 8v112a16.01582 16.01582 0 0 0 16 16h8a48 48 0 0 0 96 0h256a48.00015 48.00015 0 1 0 93.21289-16h2.78711a8.00039 8.00039 0 0 0 8-8v-11.71875a15.9646 15.9646 0 0 0 -7.125-13.3125zm-8.875 13.3125v3.71875h-53.43555l18.77735-26.82422zm-71.36328-145.00391a16.05306 16.05306 0 0 0 2.40234 3.07422l25.64844 25.64844h-92.6875v-64h43.47266zm-224.63672 132.72266v-51.46875a16.0921 16.0921 0 0 0 -7.76563-13.72266l-36.11718-21.668a8.01331 8.01331 0 0 0 -4.11719-1.14059v-80h96v96a8.00039 8.00039 0 0 0 -8 8v64zm88-40h-32v-16h32zm-32 16h32v24h-32zm48-32a16.01582 16.01582 0 0 0 -16-16h-24v-96h80v168h-40zm-256-132 26.668-20h304.80466l14.39843 24h-345.87109zm16 20h72v80h-72zm40 248a32 32 0 1 1 32-32 32.03667 32.03667 0 0 1 -32 32zm45.19971-48a47.92209 47.92209 0 0 0 -90.39942 0h-10.80029v-104h101.78516l34.21484 20.53125v83.46875zm50.80029 0v-16h144v16zm160 0v-120h104v45.47656l-52.16406 74.52344zm128 16a32 32 0 0 1 -64 0 32.41561 32.41561 0 0 1 .64062-6.41406l-.05712-.01172c.10839-.144.2539-.25.35791-.39844l6.42285-9.17578h52.26465a31.65106 31.65106 0 0 1 4.37109 16z"/><circle cx="440" cy="368" r="8"/><circle cx="88" cy="368" r="8"/></svg>